<?xml version="1.0" encoding="UTF-8"?>
<svg id="Capa_2" data-name="Capa 2" xmlns="http://www.w3.org/2000/svg" viewBox="0 0 1000 500.21">
  <defs>
    <style>
      .cls-1 {
        fill: #1d1d1b;
      }

      .cls-2 {
        fill: #fff;
      }
    </style>
  </defs>
  <g id="Capa_1-2" data-name="Capa 1">
    <g>
      <g>
        <path class="cls-2" d="M500,394.65c-126.1,0-245.01-17.74-334.83-49.96-45.25-16.23-81.14-35.45-106.67-57.1-29.95-25.39-45.13-53.51-45.13-83.57s15.19-58.18,45.14-83.57c25.53-21.66,61.42-40.87,106.66-57.1C255,31.12,373.91,13.38,500,13.38s245.01,17.75,334.83,49.96c45.25,16.23,81.14,35.45,106.66,57.1,29.95,25.39,45.13,53.51,45.13,83.57s-15.18,58.18-45.14,83.57c-25.53,21.66-61.41,40.86-106.66,57.1-89.82,32.22-208.73,49.97-334.82,49.97Z"/>
        <path class="cls-1" d="M935,128.1c-24.63-20.89-59.47-39.49-103.56-55.31-88.77-31.84-206.47-49.38-331.44-49.38s-242.68,17.54-331.44,49.38c-44.09,15.82-78.94,34.42-103.56,55.31-27.6,23.41-41.59,48.95-41.59,75.92s13.99,52.52,41.59,75.92c24.63,20.89,59.48,39.49,103.56,55.31,88.76,31.84,206.47,49.38,331.44,49.38s242.68-17.54,331.44-49.38c44.09-15.82,78.94-34.42,103.56-55.31,27.6-23.41,41.59-48.95,41.59-75.92s-13.99-52.52-41.59-75.92ZM642.22,361.56c21.37-7.5,41.28-16.74,59.26-27.6,26.97-16.3,48.24-35.42,63.24-56.88.61-.87,1.21-1.74,1.8-2.63h-18.57c-37.78,48.51-113.38,84.11-203.82,92.97,11.3-9.46,21.54-22.71,30.23-39.39,8.21-15.76,14.68-33.91,19.22-53.58h-15.47c-13.79,56.21-43.58,95.11-78.11,95.11s-64.32-38.91-78.11-95.11h-15.48c4.54,19.67,11.01,37.82,19.22,53.58,8.7,16.67,18.93,29.92,30.23,39.39-90.44-8.86-166.04-44.46-203.82-92.97h-18.57c.59.88,1.18,1.76,1.8,2.63,15,21.45,36.28,40.58,63.25,56.88,17.98,10.86,37.89,20.1,59.26,27.6-185.31-21.51-319.33-83.91-319.33-157.54S172.48,67.98,357.79,46.47c-21.37,7.5-41.28,16.74-59.26,27.6-26.96,16.29-48.24,35.42-63.24,56.88-.61.87-1.21,1.74-1.8,2.63h18.57c37.78-48.51,113.38-84.12,203.82-92.97-11.3,9.47-21.54,22.72-30.23,39.39-8.21,15.76-14.68,33.91-19.22,53.58h15.48c13.79-56.21,43.58-95.11,78.11-95.11s64.32,38.91,78.11,95.11h15.47c-4.54-19.68-11.01-37.82-19.22-53.58-8.7-16.67-18.93-29.93-30.23-39.39,90.44,8.86,166.04,44.46,203.82,92.97h18.57c-.59-.88-1.18-1.76-1.8-2.63-15-21.45-36.28-40.57-63.24-56.88-17.97-10.86-37.89-20.1-59.26-27.6,185.31,21.5,319.33,83.92,319.33,157.54s-134.02,136.04-319.33,157.54Z"/>
        <g>
          <polygon class="cls-1" points="207.36 190.64 147.16 190.64 147.16 157.19 123.75 157.19 123.75 250.84 147.16 250.84 147.16 210.7 207.36 210.7 207.36 250.84 230.77 250.84 230.77 157.19 207.36 157.19 207.36 190.64"/>
          <path class="cls-1" d="M715.72,157.19h-23.41v73.58c0,11.1,10.47,20.07,23.41,20.07h63.54v-20.07h-63.54v-73.58Z"/>
          <path class="cls-1" d="M812.71,230.77v-73.58h-23.41v73.58c0,11.1,10.47,20.07,23.41,20.07h63.54v-20.07h-63.54Z"/>
          <polygon class="cls-1" points="585.29 157.19 585.29 157.19 585.29 250.84 585.29 250.84 678.93 250.84 678.93 230.77 608.7 230.77 608.7 210.7 672.24 210.7 672.24 193.98 608.7 193.98 608.7 177.26 678.93 177.26 678.93 157.19 585.29 157.19"/>
          <path class="cls-1" d="M327.76,230.77h-60.2v-73.58h-23.41v73.58c0,11.1,10.47,20.07,23.41,20.07h60.2c12.91,0,23.41-8.96,23.41-20.07v-73.58h-23.41v73.58Z"/>
          <path class="cls-1" d="M443.09,201.53c8.95-3.85,15.11-11.76,15.11-20.92,0-12.93-12.23-23.41-27.32-23.41h-66.33s0,93.64,0,93.64h71.07c16.16,0,29.27-11.23,29.27-25.08,0-11.63-9.26-21.39-21.8-24.23ZM424.06,175.59c5.92,0,10.73,4.12,10.73,9.2s-4.78,9.18-10.69,9.2h-36.14v-18.4h36.1ZM429.77,230.77h-41.8v-20.07h41.81c6.46,0,11.7,4.49,11.7,10.04,0,5.54-5.24,10.04-11.71,10.04Z"/>
          <path class="cls-1" d="M553.46,201.53c8.95-3.85,15.1-11.76,15.1-20.92,0-12.93-12.23-23.41-27.32-23.41h-66.33s0,93.64,0,93.64h71.07c16.16,0,29.27-11.23,29.27-25.08,0-11.63-9.26-21.39-21.79-24.23ZM534.42,175.59c5.92,0,10.73,4.12,10.73,9.2s-4.78,9.18-10.69,9.2h-36.14v-18.4h36.1ZM540.14,230.77h-41.8v-20.07h41.81c6.47,0,11.71,4.49,11.71,10.04,0,5.54-5.25,10.04-11.71,10.04Z"/>
        </g>
        <path class="cls-2" d="M950.15,110.24c-26.76-22.7-64.04-42.72-110.8-59.5C748.11,18.02,627.6,0,500,0S251.89,18.02,160.66,50.75c-46.77,16.78-84.04,36.8-110.8,59.49C16.78,138.29,0,169.84,0,204.02s16.78,65.72,49.86,93.78c26.76,22.7,64.04,42.71,110.8,59.49,91.23,32.73,211.75,50.75,339.35,50.75s248.11-18.02,339.34-50.75c46.77-16.78,84.04-36.8,110.79-59.49,33.09-28.05,49.86-59.6,49.86-93.77s-16.77-65.73-49.85-93.78ZM935,279.94c-24.63,20.89-59.47,39.49-103.56,55.31-88.76,31.84-206.47,49.38-331.44,49.38s-242.68-17.54-331.44-49.38c-44.09-15.82-78.94-34.42-103.56-55.31-27.6-23.41-41.59-48.95-41.59-75.92s13.99-52.52,41.59-75.92c24.63-20.89,59.48-39.49,103.56-55.31,88.77-31.84,206.48-49.38,331.44-49.38s242.68,17.54,331.44,49.38c44.09,15.82,78.94,34.43,103.56,55.31,27.6,23.41,41.59,48.95,41.59,75.92s-13.99,52.52-41.59,75.92Z"/>
        <path class="cls-2" d="M925.48,48.81c0-3.54.62-6.85,1.86-9.94,1.24-3.08,2.97-5.78,5.19-8.07,2.22-2.3,4.89-4.1,8.02-5.42,3.12-1.32,6.57-1.98,10.33-1.98s7.21.66,10.33,1.98c3.12,1.32,5.79,3.13,8.02,5.42,2.22,2.29,3.95,4.99,5.2,8.07,1.24,3.08,1.86,6.4,1.86,9.94s-.62,6.85-1.86,9.94c-1.24,3.08-2.97,5.78-5.2,8.07-2.22,2.29-4.89,4.1-8.02,5.42-3.13,1.32-6.57,1.97-10.33,1.97s-7.21-.66-10.33-1.97c-3.13-1.32-5.79-3.12-8.02-5.42-2.22-2.29-3.95-4.99-5.19-8.07-1.24-3.09-1.86-6.4-1.86-9.94ZM971.53,48.81c0-2.94-.51-5.68-1.53-8.24-1.02-2.56-2.42-4.79-4.23-6.72-1.8-1.92-3.97-3.44-6.49-4.57-2.53-1.13-5.33-1.69-8.41-1.69s-5.89.57-8.41,1.69c-2.52,1.13-4.68,2.66-6.49,4.57-1.8,1.91-3.22,4.16-4.23,6.72-1.02,2.56-1.53,5.31-1.53,8.24s.51,5.68,1.53,8.24c1.02,2.56,2.42,4.79,4.23,6.72,1.8,1.92,3.97,3.44,6.49,4.57,2.52,1.13,5.33,1.69,8.41,1.69s5.89-.57,8.41-1.69c2.52-1.13,4.68-2.65,6.49-4.57,1.8-1.92,3.22-4.15,4.23-6.72,1.02-2.56,1.53-5.31,1.53-8.24ZM962.62,43.39c0-2.4-.77-4.42-2.32-6.04-1.54-1.62-4.12-2.42-7.73-2.42h-10.72v28.45h4.74v-10.95h4.63l6.54,10.95h5.08l-6.77-11.4c1.96-.6,3.53-1.69,4.74-3.28,1.2-1.58,1.8-3.35,1.8-5.31ZM957.88,43.33c0,3.2-1.84,4.8-5.53,4.8h-5.76v-9.03h5.87c1.96,0,3.34.37,4.17,1.08.83.73,1.24,1.78,1.24,3.15Z"/>
      </g>
      <g>
        <path class="cls-2" d="M.14,462.85c0-3.12,0-5.24-.06-7.8h46.4v8.73c-9.42-.06-21.27-.06-29.38-.06h-6.49v8.92h33.24v8.36c-12.35-.06-16.34-.06-23.2-.06h-10.04v9.73h8.11c8.42,0,21.83,0,28.81-.06v8.73H.08c.06-2.87.06-5.49.06-10.04v-26.44Z"/>
        <path class="cls-2" d="M54.96,499.34c.06-2.87.06-5.55.06-9.85v-26.51c0-3.24,0-5.55-.06-7.92h10.6c-.06,2.37-.06,4.74-.06,7.92v26.94h13.22c7.11,0,16.78,0,21.77-.06v9.48h-45.53Z"/>
        <path class="cls-2" d="M107.6,462.85c0-3.12,0-5.24-.06-7.8h46.4v8.73c-9.42-.06-21.27-.06-29.38-.06h-6.49v8.92h33.24v8.36c-12.35-.06-16.34-.06-23.2-.06h-10.04v9.73h8.11c8.42,0,21.83,0,28.81-.06v8.73h-47.46c.06-2.87.06-5.49.06-10.04v-26.44Z"/>
        <path class="cls-2" d="M159.81,478.2v-2c0-16.84,5.49-22.02,27.75-22.02s27.44,3.99,27.32,18.27l-10.35.25c0-6.86-1.87-9.17-16.96-9.17s-16.96,2.81-16.96,13.41v.5c0,10.79,2.37,13.41,17.09,13.41s16.84-2.37,16.9-9.17l10.35.25c.12,14.03-4.99,18.27-27.38,18.27s-27.75-5.24-27.75-22.02Z"/>
        <path class="cls-2" d="M239.89,464.48h-5.86c-4.8,0-11.79,0-16.15.06v-9.48h54.57v9.48c-4.43-.06-8.73-.06-11.23-.06h-10.85v24.82c0,4.86,0,6.92.06,10.04h-10.6c.06-2.93.06-5.49.06-10.04v-24.82Z"/>
        <path class="cls-2" d="M278.62,462.85c0-3.12,0-5.24-.06-7.8h32.49c15.28,0,20.33,3.56,20.33,14.28v.19c0,7.73-2.68,12.04-10.54,13.91,1.37,1.81,2.81,3.74,4.18,5.8,2.12,3.24,4.49,6.61,6.92,10.1h-12.04c-1.56-2.56-3.43-5.3-5.43-8.11l-4.24-5.92h-21.14v3.99c0,4.86,0,6.99.06,10.04h-10.6c.06-2.87.06-5.49.06-10.04v-26.44ZM289.1,463.92v12.66h21.58c7.86,0,9.92-2.06,9.92-6.55v-.12c0-4.37-2.06-5.99-9.92-5.99h-21.58Z"/>
        <path class="cls-2" d="M338.49,462.85c0-3.12,0-5.18-.06-7.8h10.6c-.06,2.68-.06,4.62-.06,7.8v26.44c0,4.86,0,6.92.06,10.04h-10.6c.06-2.93.06-5.49.06-10.04v-26.44Z"/>
        <path class="cls-2" d="M358.83,462.85c0-3.12,0-5.24-.06-7.8h45.78v9.04c-7.36-.06-14.34-.06-23.7-.06h-11.54v10.17h32.49v8.79c-6.17-.06-15.47-.06-22.58-.06h-9.92v6.36c0,4.86,0,6.92.06,10.04h-10.6c.06-2.93.06-5.49.06-10.04v-26.44Z"/>
        <path class="cls-2" d="M431.11,485.62c-7.23-9.23-17.46-22.27-24.26-30.56h12.29l9.42,11.97c2.74,3.49,5.43,6.92,7.98,10.29,2.62-3.49,5.3-6.99,8.11-10.48l9.36-11.79h11.66c-6.74,8.29-16.78,21.14-24.07,30.37v4.93c0,3.62-.12,6.36-.06,8.98h-10.48c.06-2.56.06-5.36.06-8.98v-4.74Z"/>
        <path class="cls-2" d="M492.3,486.8v-.25c0-6.24,2.37-9.54,9.54-11.41-3.18-2.62-4.49-5.11-4.49-8.48v-.25c0-8.54,3.56-12.22,21.27-12.22s21.14,3.62,21.14,12.16v.31c0,7.86-3.24,10.73-17.46,12.35,4.05,2.56,9.29,5.8,14.59,9.11.31-.69.44-1.56.44-2.56,0-2.18-.12-3.43-.19-4.3l9.6-.19c.06.94.19,2.31.19,4.68,0,2.93-.56,5.43-1.87,7.42,3.43,2.18,6.8,4.24,9.67,6.05l-.12.12h-13.35l-3.43-2.06c-3.43,1.87-8.42,2.93-18.46,2.93-22.39,0-27.07-3.49-27.07-13.41ZM519.37,492.04c3.68,0,6.67-.19,8.98-.44l-18.21-10.98c-6.36.94-7.55,2.37-7.55,5.92v.12c0,3.87,1.81,5.36,16.78,5.36ZM513.32,473.15l4.62-.44c9.6-.87,11.6-2.31,11.6-5.8v-.31c0-2.99-1.25-4.49-10.91-4.49s-10.79,1.5-10.79,4.43v.25c0,2.06,1.06,3.49,5.49,6.36Z"/>
        <path class="cls-2" d="M583.23,462.85c0-3.12,0-5.24-.06-7.8h46.4v8.73c-9.42-.06-21.27-.06-29.38-.06h-6.49v8.92h33.24v8.36c-12.35-.06-16.34-.06-23.2-.06h-10.04v9.73h8.11c8.42,0,21.83,0,28.81-.06v8.73h-47.46c.06-2.87.06-5.49.06-10.04v-26.44Z"/>
        <path class="cls-2" d="M637.93,489.61v-26.44c0-3.31,0-5.43-.06-8.11h17.65l12.85,18.52c2.68,4.18,7.61,11.29,11.29,16.65h1.5c-.12-5.3-.25-15.09-.25-19.15,0-4.74,0-11.1-.06-16.03h10.29c-.06,2.68-.06,4.86-.06,8.17v25.94c0,4.62,0,7.17.06,10.17h-17.28l-13.16-18.71c-3.43-5.11-7.55-11.1-11.29-16.47h-1.5c.12,6.05.25,14.66.25,19.52,0,4.37,0,10.67.06,15.65h-10.35c.06-3.12.06-4.68.06-9.73Z"/>
        <path class="cls-2" d="M700.8,462.85c0-3.12,0-5.24-.06-7.8h46.4v8.73c-9.42-.06-21.27-.06-29.38-.06h-6.49v8.92h33.24v8.36c-12.35-.06-16.34-.06-23.2-.06h-10.04v9.73h8.11c8.42,0,21.83,0,28.81-.06v8.73h-47.46c.06-2.87.06-5.49.06-10.04v-26.44Z"/>
        <path class="cls-2" d="M755.68,462.85c0-3.12,0-5.24-.06-7.8h32.49c15.28,0,20.33,3.56,20.33,14.28v.19c0,7.73-2.68,12.04-10.54,13.91,1.37,1.81,2.81,3.74,4.18,5.8,2.12,3.24,4.49,6.61,6.92,10.1h-12.04c-1.56-2.56-3.43-5.3-5.43-8.11l-4.24-5.92h-21.14v3.99c0,4.86,0,6.99.06,10.04h-10.6c.06-2.87.06-5.49.06-10.04v-26.44ZM766.16,463.92v12.66h21.58c7.86,0,9.92-2.06,9.92-6.55v-.12c0-4.37-2.06-5.99-9.92-5.99h-21.58Z"/>
        <path class="cls-2" d="M813.31,478.2v-2c0-16.84,5.49-22.02,27.75-22.02s27.44,3.43,27.32,15.72l-10.35.19v-.25c-.06-4.68-2.12-6.3-16.65-6.3s-17.28,2.81-17.28,13.41v.5c0,11.04,2.37,13.66,17.21,13.66s17.03-1.31,16.96-7.67v-.12h-22.7v-8.36h32.93c-.06,2.18-.06,5.49-.06,7.36,0,14.53-4.93,17.9-27.32,17.9s-27.82-5.24-27.82-22.02Z"/>
        <path class="cls-2" d="M876.18,462.85c0-3.12,0-5.18-.06-7.8h10.6c-.06,2.68-.06,4.62-.06,7.8v26.44c0,4.86,0,6.92.06,10.04h-10.6c.06-2.93.06-5.49.06-10.04v-26.44Z"/>
        <path class="cls-2" d="M944.85,490.42v8.92h-50.58v-12.66l22.83-14.03c5.18-2.74,10.91-5.74,16.47-8.73h-12.66c-6.49,0-21.39,0-26.38.06v-8.92h49.89v12.66l-21.52,12.85c-5.92,3.37-12.04,6.61-18.15,9.92h7.98c9.11,0,27.13,0,32.12-.06Z"/>
        <path class="cls-2" d="M952.52,462.85c0-3.12,0-5.24-.06-7.8h46.4v8.73c-9.42-.06-21.27-.06-29.38-.06h-6.49v8.92h33.24v8.36c-12.35-.06-16.34-.06-23.2-.06h-10.04v9.73h8.11c8.42,0,21.83,0,28.81-.06v8.73h-47.46c.06-2.87.06-5.49.06-10.04v-26.44Z"/>
      </g>
    </g>
  </g>
</svg>