<?xml version="1.0" encoding="UTF-8"?>
<svg id="Capa_2" data-name="Capa 2" xmlns="http://www.w3.org/2000/svg" viewBox="0 0 2993.16 499.85">
  <defs>
    <style>
      .cls-1, .cls-2 {
        fill: #fff;
      }

      .cls-2 {
        fill-rule: evenodd;
      }
    </style>
  </defs>
  <g id="Capa_1-2" data-name="Capa 1">
    <g id="Logo">
      <g>
        <path class="cls-1" d="M709.61,459.3V79.06h195.84c6.46,0,12.92.5,18.89.99,51.69,6.46,81.02,29.33,91.46,65.61,13.92,47.22-7.95,86.49-57.16,105.87-2.49.99-5.96,1.99-8.95,2.98,2.98,0,6.46.5,9.44,1.49,53.18,11.43,84,55.17,73.07,116.31-7.46,41.75-29.82,67.6-65.61,81.02-12.43,3.98-23.86,6.46-33.3,6.46h-223.67v-.5ZM877.12,222.71c15.41,0,23.36-6.96,25.35-22.86,2.49-18.89-5.47-29.33-24.36-29.33h-50.7v51.69h49.7v.5ZM873.14,367.35c30.82,0,42.75-10.94,40.76-33.8-1.49-19.38-13.42-27.83-44.73-27.83h-41.75v61.63h45.73Z"/>
        <path class="cls-1" d="M1070.47,320.62V79.06h117.8v233.11c0,39.76,11.43,55.67,43.74,60.64,6.46.99,13.42.99,19.38,0,31.81-5.47,43.74-21.37,43.74-60.64V79.06h117.8v241.56c0,97.92-34.79,136.69-141.16,145.63-19.88,1.49-40.76,1.49-60.64,0-105.87-8.95-140.66-48.21-140.66-145.63"/>
        <path class="cls-1" d="M1458.66,459.3V79.06h202.3c75.55,0,123.27,45.23,122.77,115.81,0,50.7-26.84,92.45-61.63,107.86l-3.48,1.49-4.97,1.49,95.93,153.59h-148.12l-66.6-133.71h-18.39v133.71h-117.8ZM1629.64,234.14c23.36.5,34.3-8.45,38.77-26.34,4.97-23.36-8.45-36.78-39.76-36.78h-51.69v63.62h52.69v-.5Z"/>
        <path class="cls-1" d="M1824.98,459.3V79.06h119.79l110.34,169.49c3.48,5.96,8.95,17.4,22.37,55.67,1.49,4.47,2.98,8.95,4.97,13.92-.99-4.97-1.99-9.44-2.98-14.41-7.46-35.79-9.44-51.2-9.44-60.14l-1.99-164.52h109.85v380.24h-110.84l-122.77-200.31c-1.99-2.98-3.98-6.96-14.41-33.8l-5.47-14.41-4.97-14.91c2.49,9.94,4.97,19.38,6.96,30.32,4.97,23.36,5.96,31.31,5.96,36.78l1.49,195.84h-108.85v.5Z"/>
        <path class="cls-1" d="M2223.11,459.3V79.06h178.94c100.9,0,163.03,61.63,165.02,182.91,1.99,128.73-66.6,197.82-143.65,197.82-.5,0-200.31-.5-200.31-.5M2383.16,367.35c30.82,0,56.66-26.84,61.63-84,.99-12.43.5-25.85-.99-39.27-7.95-54.18-30.32-73.56-66.11-73.56h-36.78v196.83h42.25Z"/>
        <path class="cls-1" d="M2547.68,79.06h134.2l33.3,104.88c6.46,19.38,8.95,34.3,9.44,52.19,0-5.47.5-9.94.99-14.91,1.49-11.93,3.98-22.86,8.45-37.28l33.8-104.88h134.2l-118.3,253.49v126.75h-117.8v-126.75l-118.3-253.49Z"/>
        <path class="cls-2" d="M2993.16,117.61c0,16.67-13.11,29.76-30.17,29.76s-30.36-13.09-30.36-29.76,13.48-29.41,30.36-29.41,30.17,13.09,30.17,29.41ZM2940.17,117.61c0,13.09,9.7,23.49,22.99,23.49s22.45-10.4,22.45-23.31-9.52-23.67-22.63-23.67-22.81,10.58-22.81,23.49ZM2958.32,133.03h-6.83v-29.41c2.7-.54,6.47-.9,11.32-.9,5.56,0,8.08.9,10.23,2.16,1.62,1.25,2.87,3.58,2.87,6.45,0,3.23-2.51,5.74-6.1,6.81v.36c2.87,1.08,4.49,3.23,5.38,7.17.9,4.48,1.45,6.28,2.16,7.35h-7.36c-.9-1.08-1.44-3.77-2.34-7.17-.54-3.23-2.33-4.66-6.11-4.66h-3.23v11.84ZM2958.5,116.35h3.23c3.77,0,6.83-1.26,6.83-4.31,0-2.69-1.98-4.48-6.29-4.48-1.8,0-3.05.18-3.77.35v8.43Z"/>
      </g>
      <g>
        <path class="cls-2" d="M395.98,161.25c-3.78-7.42-5.61-12.57-8.7-16.8-23.45-32.05-54.58-53.42-92.63-64.51-49.42-14.41-95.98-6.78-140.34,18.52-8.07,4.61-11.35,10-10.63,19.05.58,7.41-.08,14.92-.3,22.38-.02.81-.78,1.6-1.63,3.25h-69.97c-.46-2.83-1.25-5.45-1.27-8.07-.11-18.69.12-37.38-.17-56.07-.1-6.12,1.86-10.48,6.46-14.56C119.13,27.02,167.86,4.88,224.68.78c57.39-4.13,110.67,7.92,158.88,39.44,36.28,23.71,65.97,54.15,83.62,94.11,18.22,41.23-2.36,85.98-45.49,98.24-5.3,1.5-11.06,1.94-16.61,1.95-130.6.11-261.2.09-391.8.06-3.69,0-7.37-.35-12.69-.61,0-6.69-.86-13.15.17-19.3,2.39-14.23,5.25-28.43,8.79-42.42,2.6-10.27,4.05-10.81,14.71-10.98,8.43-.13,16.85-.03,25.28-.03h327.2s19.22,0,19.22,0Z"/>
        <path class="cls-2" d="M70.44,356.45h73.38c0,9.6.3,18.37-.1,27.11-.31,6.72,1.7,11.4,7.73,15.03,23.12,13.93,47.6,23.59,74.66,26.68,52.91,6.06,98.85-9.75,138.56-44.17,9.44-8.18,17.02-18.54,25.12-28.19,1.9-2.25,2.43-5.65,4.35-10.4-26.4-3.25-51.45-1.13-76.39-1.52-24.81-.38-49.62-.08-74.44-.08-25.28,0-50.56,0-75.85,0H16.31c-11.41-22.69-14.23-46.69-16.31-71.93,5.6-.43,9.23-.95,12.86-.95,128.29-.04,256.58-.11,384.87.02,32.8.03,59.91,17.61,70.69,45.98,8.55,22.52,4.64,44.1-7.26,64.5-27.89,47.8-68.39,80.99-119.09,102.41-30.59,12.92-62.77,19.61-95.63,18.87-63.37-1.42-119.84-22.38-167.59-65.01-6.04-5.39-8.8-11.17-8.57-19.4.52-19.09.17-38.21.17-58.94"/>
        <path class="cls-2" d="M566.99,117.61c0,16.67-13.11,29.76-30.17,29.76s-30.36-13.09-30.36-29.76,13.48-29.41,30.36-29.41,30.17,13.09,30.17,29.41ZM514,117.61c0,13.09,9.7,23.49,22.99,23.49s22.45-10.4,22.45-23.31-9.52-23.67-22.63-23.67-22.81,10.58-22.81,23.49ZM532.14,133.03h-6.83v-29.41c2.7-.54,6.47-.9,11.32-.9,5.56,0,8.08.9,10.23,2.16,1.62,1.25,2.87,3.58,2.87,6.45,0,3.23-2.51,5.74-6.1,6.81v.36c2.87,1.08,4.49,3.23,5.38,7.17.9,4.48,1.45,6.28,2.16,7.35h-7.36c-.9-1.08-1.44-3.77-2.34-7.17-.54-3.23-2.33-4.66-6.11-4.66h-3.23v11.84h0ZM532.32,116.35h3.23c3.77,0,6.83-1.26,6.83-4.31,0-2.69-1.98-4.48-6.29-4.48-1.79,0-3.05.18-3.77.35v8.43h0Z"/>
      </g>
    </g>
  </g>
</svg>